<svg width="48" height="65" viewBox="0 0 48 65" fill="none" xmlns="http://www.w3.org/2000/svg">
<path fill-rule="evenodd" clip-rule="evenodd" d="M41.242 58.0618C41.8734 57.8892 41.9022 57.8853 42.3609 57.7504C42.8196 57.6155 43.1998 57.4976 43.5171 57.393C43.8342 57.2884 44.0885 57.1972 44.2953 57.1155C44.5024 57.0337 44.6618 56.9616 44.7892 56.8955C44.9169 56.8293 45.0125 56.7691 45.0918 56.711C45.1714 56.6529 45.2344 56.5971 45.2964 56.5398C45.3662 56.3997 45.4322 56.2593 45.4942 56.1188C45.5563 55.9782 45.6148 55.8374 45.6694 55.6963C45.724 55.5552 45.7749 55.4139 45.8221 55.2722C45.8692 55.1307 45.9124 54.9888 45.9521 54.8467C45.9919 54.7046 46.0276 54.5622 46.0599 54.4196C46.0919 54.277 46.1203 54.1341 46.1448 53.991C46.1697 53.8478 46.1906 53.7044 46.2077 53.5608C46.2249 53.4171 46.2381 53.2733 46.2478 53.1291C46.2575 52.9849 46.2632 52.8405 46.2655 52.6958C46.2675 52.5512 46.2661 52.4062 46.2607 52.261C46.2552 52.1159 46.2461 51.9705 46.2332 51.8248C46.2204 51.6791 46.2038 51.5331 46.1833 51.3869C46.163 51.2407 46.139 51.0942 46.111 50.9475C46.0832 50.8008 46.0515 50.6539 46.0161 50.5066C45.9809 50.3594 45.9418 50.2119 45.8989 50.0641C45.8561 49.9164 45.8095 49.7684 45.7589 49.6202C45.3726 49.2585 44.9897 48.8947 44.6105 48.5285C44.2313 48.1624 43.8557 47.7941 43.4837 47.4235C43.1117 47.053 42.7435 46.6801 42.3788 46.3051C42.0139 45.9301 41.6528 45.5528 41.2955 45.1733C40.938 44.7938 40.5843 44.412 40.2341 44.028C39.8837 43.6441 39.5374 43.2578 39.1944 42.8693C38.8514 42.4809 38.5121 42.0902 38.1765 41.6972C37.8409 41.3043 37.5088 40.9091 37.1802 40.5118C36.852 40.1143 36.527 39.7147 36.2059 39.3128C35.8847 38.9109 35.5672 38.5068 35.2534 38.1005C34.9394 37.6941 34.6292 37.2855 34.3225 36.8747C34.0159 36.4639 33.7128 36.0508 33.4133 35.6355C33.114 35.2202 32.8184 34.8027 32.5261 34.3829C32.234 33.9631 31.9455 33.5412 31.6606 33.1169C31.3757 32.6926 31.0945 32.2662 30.8168 31.8374C30.5393 31.4088 30.2653 30.9779 29.9949 30.5446C29.8836 30.7315 29.7783 30.9189 29.6791 31.1069C29.5799 31.295 29.4868 31.4836 29.3996 31.6725C29.3124 31.8615 29.2313 32.051 29.1562 32.2411C29.0812 32.4312 29.0122 32.6219 28.9491 32.813C28.8861 33.004 28.8292 33.1958 28.7782 33.3878C28.7273 33.58 28.6824 33.7728 28.6435 33.9659C28.6047 34.1592 28.5718 34.3529 28.545 34.5472C28.5183 34.7414 28.4975 34.936 28.4828 35.1315C28.468 35.3266 28.4593 35.5224 28.4567 35.7188C28.454 35.9151 28.4574 36.112 28.4668 36.3093C28.4763 36.5068 28.4917 36.7046 28.5132 36.903C28.5347 37.1015 28.5622 37.3004 28.5958 37.4999C28.6293 37.6993 28.6689 37.8993 28.7145 38.0998C28.7602 38.3002 28.8118 38.5013 28.8695 38.7028C28.9272 38.9043 28.991 39.1064 29.0607 39.309C29.1305 39.5115 29.2063 39.7146 29.2881 39.9182L29.4919 40.2776L29.6958 40.6369L29.9035 40.9936L30.1113 41.3503L30.323 41.7044L30.5348 42.0585L30.7505 42.41L30.9662 42.7615L31.1859 43.1103L31.4056 43.4592L31.6292 43.8055L31.8529 44.1517L32.0805 44.4954L32.3082 44.839L32.5398 45.1801L32.7714 45.5211L32.7621 45.5469L32.7529 45.5728L32.7436 45.5986L32.7344 45.6245L32.7251 45.6503L32.7158 45.6762L32.7066 45.702L32.6973 45.7279L32.6881 45.7537L32.6788 45.7796L32.6695 45.8054L32.6603 45.8313L32.651 45.8571L32.6417 45.883L32.6325 45.9088L32.6232 45.9347C32.4091 45.8631 32.1962 45.7894 31.9845 45.7136C31.7728 45.6377 31.5623 45.5597 31.353 45.4795C31.1437 45.3994 30.9357 45.317 30.7289 45.2326C30.522 45.1481 30.3164 45.0614 30.112 44.9726C29.9076 44.8838 29.7044 44.7928 29.5024 44.6997C29.3005 44.6066 29.0997 44.5113 28.9002 44.4138C28.7007 44.3164 28.5023 44.2168 28.3052 44.115C28.1081 44.0133 27.9122 43.9094 27.7176 43.8033C27.5229 43.6972 27.3294 43.589 27.1372 43.4786C26.9449 43.3682 26.7539 43.2556 26.5641 43.1409C26.3743 43.0262 26.1857 42.9093 25.9983 42.7903C25.8109 42.6713 25.6248 42.5501 25.4398 42.4268C25.2549 42.3034 25.0711 42.1779 24.8886 42.0503C24.7061 41.9226 24.5248 41.7928 24.3447 41.6608C24.1646 41.5288 23.9858 41.3947 23.8081 41.2584C23.6305 41.1221 23.454 40.9836 23.2788 40.843C22.5653 40.3126 21.8773 39.772 21.2147 39.2211C20.5522 38.6703 19.9151 38.1091 19.3035 37.5378C18.6918 36.9662 18.1057 36.3848 17.5449 35.7928C16.9843 35.2011 16.449 34.599 15.9393 33.9866C15.4295 33.3741 14.9452 32.7516 14.4863 32.1187C14.0275 31.4859 13.5941 30.8427 13.1861 30.1894C12.7782 29.5361 12.3958 28.8724 12.0388 28.1987C11.6818 27.5247 11.3502 26.8406 11.0442 26.1464C10.7381 25.452 10.4575 24.7475 10.2024 24.0326C9.94726 23.3178 9.71754 22.5926 9.51335 21.8573C9.30915 21.122 9.13039 20.3764 8.97714 19.6206C8.82388 18.8649 8.69605 18.0988 8.59369 17.3224C8.49131 16.546 8.41444 15.7595 8.36302 14.9626C8.31159 14.1658 8.28566 13.3588 8.28517 12.5415C8.28468 11.7243 8.30963 10.8966 8.3601 10.0589C8.41057 9.22117 8.48645 8.37311 8.58779 7.51471C8.55627 7.49144 8.5247 7.46969 8.49307 7.44947C8.46145 7.42925 8.42973 7.41031 8.39793 7.3929C8.36616 7.37549 8.33431 7.35961 8.30237 7.34501C8.27042 7.33042 8.23843 7.31734 8.20638 7.3058C8.17429 7.29401 8.14212 7.28375 8.10992 7.27501C8.0777 7.26628 8.04545 7.25907 8.01308 7.25315C7.98071 7.24723 7.94829 7.24284 7.91578 7.23973C7.8833 7.23686 7.85074 7.23527 7.81811 7.23521C7.7854 7.23492 7.75273 7.23639 7.71994 7.23914C7.68717 7.24189 7.65426 7.24594 7.62136 7.25174C7.58842 7.25731 7.55543 7.26439 7.52236 7.27302C7.48925 7.28139 7.45615 7.29154 7.42296 7.30297C7.38974 7.3144 7.3564 7.32711 7.32304 7.34135C7.28974 7.35583 7.2563 7.3716 7.22276 7.38866C7.18932 7.40595 7.15573 7.42453 7.12209 7.44463C7.08838 7.4645 7.05471 7.48613 7.02092 7.50904C6.88519 7.6929 6.75421 7.8784 6.62787 8.06507C6.50153 8.25174 6.37988 8.43982 6.263 8.62953C6.14603 8.81902 6.03377 9.0099 5.92619 9.20219C5.81861 9.39449 5.71574 9.58819 5.61756 9.78329C5.51931 9.97816 5.42584 10.1747 5.33702 10.3726C5.24823 10.5705 5.16406 10.7696 5.08466 10.9703C5.00526 11.171 4.93048 11.3729 4.86045 11.5765C4.79038 11.7798 4.72503 11.9847 4.66436 12.1908C4.60372 12.3972 4.54772 12.6047 4.49641 12.8136C4.44517 13.0228 4.39857 13.2331 4.35665 13.4449C4.31473 13.6566 4.2775 13.8697 4.24497 14.0843C4.21245 14.2988 4.18464 14.5148 4.16148 14.7321C4.13835 14.9495 4.11992 15.1682 4.10616 15.3884C4.09242 15.6086 4.08338 15.8301 4.07896 16.0529C4.07461 16.2759 4.07495 16.5003 4.07993 16.7258C4.08497 16.9516 4.09464 17.1785 4.10908 17.4071C4.12854 17.9203 4.15654 18.4309 4.19314 18.9392C4.22967 19.4473 4.27473 19.9529 4.32832 20.4559C4.38191 20.9589 4.44409 21.4596 4.51475 21.9576C4.5854 22.4555 4.66458 22.951 4.75229 23.4438C4.84001 23.9367 4.93625 24.4271 5.04103 24.9149C5.1458 25.4027 5.25911 25.888 5.38094 26.3708C5.50278 26.8535 5.63315 27.3337 5.77205 27.8114C5.91094 28.2891 6.05831 28.764 6.21427 29.2366C6.37023 29.7093 6.53472 30.1793 6.70774 30.6469C6.8807 31.1142 7.06225 31.5792 7.25234 32.0417C7.44242 32.5042 7.64097 32.9639 7.84812 33.4213C8.05526 33.8788 8.27087 34.3334 8.49508 34.7858C8.71929 35.2381 8.95197 35.6877 9.19324 36.135C9.43445 36.582 9.68425 37.0268 9.94252 37.4688C10.2009 37.911 10.4677 38.3504 10.743 38.7876C11.0184 39.2245 11.3023 39.6591 11.5947 40.091C11.732 40.2608 11.8707 40.4291 12.0108 40.596C12.1509 40.763 12.2923 40.9283 12.4351 41.0922C12.5779 41.2561 12.7221 41.4185 12.8677 41.5794C13.0132 41.7403 13.1602 41.8997 13.3085 42.0576C13.4568 42.2155 13.6066 42.372 13.7576 42.5269C13.9087 42.6818 14.0612 42.8353 14.215 42.9872C14.3689 43.1392 14.5241 43.2897 14.6807 43.4387C14.8373 43.5876 14.9953 43.7351 15.1546 43.8811C15.314 44.0271 15.4747 44.1716 15.6368 44.3146C15.7989 44.4577 15.9624 44.5992 16.1273 44.7392C16.2922 44.8793 16.4584 45.0178 16.626 45.1549C16.7937 45.2919 16.9627 45.4275 17.1331 45.5616C17.3034 45.6957 17.4752 45.8282 17.6484 45.9594C17.8215 46.0905 17.996 46.22 18.1719 46.3482C18.3478 46.4763 18.5251 46.6029 18.7038 46.7281C18.8825 46.8532 19.0625 46.9769 19.2439 47.099L19.9376 47.4775L20.6313 47.8559L21.325 48.2344L22.0188 48.6128L22.714 48.9859L23.4093 49.359L24.1046 49.7321L24.7999 50.1051L25.4968 50.4729L26.1936 50.8406L26.8905 51.2082L27.5874 51.5759L28.2858 51.9383L28.9842 52.3006L29.6827 52.6629L30.3811 53.0253L30.1931 53.1072L30.005 53.1892L29.8156 53.2676L29.6261 53.346L29.4352 53.4208L29.2444 53.4957L29.052 53.567L28.8597 53.6383L28.666 53.7061L28.4723 53.7739L28.2771 53.8381L28.0819 53.9024L27.8854 53.9631L27.6888 54.0238L27.4908 54.0809L27.2928 54.1381C27.235 54.1755 27.1789 54.2138 27.1244 54.253C27.0698 54.2923 27.0169 54.3324 26.9656 54.3735C26.9143 54.4146 26.8646 54.4567 26.8165 54.4996C26.7684 54.5426 26.722 54.5865 26.6771 54.6313C26.6323 54.6761 26.589 54.7219 26.5474 54.7685C26.5057 54.8152 26.4657 54.8628 26.4273 54.9114C26.3889 54.9599 26.3521 55.0094 26.3169 55.0598C26.2818 55.1102 26.2482 55.1615 26.2162 55.2138C26.1843 55.266 26.1539 55.3192 26.1252 55.3733C26.0965 55.4275 26.0694 55.4825 26.0439 55.5385C26.0184 55.5945 25.9944 55.6514 25.9722 55.7092C25.9499 55.7671 25.9292 55.8258 25.9102 55.8856C25.8911 55.9453 25.8737 56.0059 25.8578 56.0674C25.842 56.129 25.8278 56.1915 25.8152 56.2549C25.8026 56.3184 25.7916 56.3827 25.7822 56.448C25.7728 56.5133 25.7651 56.5795 25.7589 56.6467C25.7458 56.7149 25.7334 56.7831 25.7218 56.8514C25.7102 56.9196 25.6994 56.9879 25.6894 57.0561C25.6794 57.1244 25.6702 57.1927 25.6618 57.261C25.6534 57.3293 25.6458 57.3976 25.639 57.4659C25.6322 57.5342 25.6262 57.6025 25.621 57.6709C25.6159 57.7392 25.6115 57.8075 25.6079 57.8759C25.6043 57.9443 25.6015 58.0126 25.5995 58.081C25.5975 58.1494 25.5963 58.2178 25.5959 58.2862C25.5955 58.3546 25.5959 58.423 25.5971 58.4914C25.5983 58.5599 25.6004 58.6283 25.6032 58.6967C25.606 58.7652 25.6096 58.8336 25.614 58.9021C25.6184 58.9705 25.6236 59.039 25.6297 59.1075C25.6357 59.176 25.6425 59.2445 25.6501 59.313C25.6577 59.3815 25.6662 59.45 25.6754 59.5185C25.6846 59.587 25.6946 59.6556 25.7054 59.7241C25.7163 59.7927 25.7279 59.8612 25.7403 59.9298L26.7364 59.7712L27.7324 59.6126L28.7287 59.4676L29.725 59.3225L30.7216 59.1911L31.7182 59.0597L32.7151 58.9419L33.712 58.824L34.7091 58.7198L35.7062 58.6156L36.7036 58.525L37.7011 58.4344L38.6988 58.3574L39.6964 58.2804L40.6943 58.217C40.6943 58.217 40.7287 58.2355 41.242 58.0618Z" fill="url(#paint0_linear_35_3823)"/>
<defs>
<linearGradient id="paint0_linear_35_3823" x1="33.643" y1="54.791" x2="20.3981" y2="-0.89941" gradientUnits="userSpaceOnUse">
<stop stop-color="#FFD700"/>
<stop offset="0.783654" stop-color="#EBF5FF"/>
</linearGradient>
</defs>
</svg>
