<svg width="48" height="65" viewBox="0 0 48 65" fill="none" xmlns="http://www.w3.org/2000/svg">
<path fill-rule="evenodd" clip-rule="evenodd" d="M41.2476 57.839C41.879 57.6664 41.9077 57.6625 42.3664 57.5276C42.8251 57.3927 43.2053 57.2748 43.5227 57.1702C43.8398 57.0656 44.0941 56.9743 44.3009 56.8926C44.508 56.8109 44.6674 56.7388 44.7948 56.6727C44.9225 56.6065 45.0181 56.5462 45.0974 56.4882C45.177 56.4301 45.24 56.3742 45.302 56.317C45.3717 56.1769 45.4377 56.0365 45.4998 55.896C45.5618 55.7554 45.6204 55.6145 45.675 55.4735C45.7296 55.3324 45.7805 55.191 45.8276 55.0494C45.8748 54.9078 45.918 54.766 45.9577 54.6239C45.9974 54.4817 46.0332 54.3394 46.0655 54.1968C46.0975 54.0542 46.1258 53.9113 46.1504 53.7682C46.1753 53.625 46.1961 53.4816 46.2133 53.338C46.2304 53.1943 46.2436 53.0505 46.2533 52.9063C46.2631 52.7621 46.2688 52.6177 46.2711 52.473C46.2731 52.3284 46.2716 52.1834 46.2662 52.0382C46.2608 51.8931 46.2517 51.7476 46.2388 51.6019C46.226 51.4562 46.2094 51.3103 46.1888 51.1641C46.1685 51.0179 46.1445 50.8714 46.1165 50.7247C46.0888 50.578 46.0571 50.431 46.0217 50.2838C45.9865 50.1365 45.9474 49.9891 45.9045 49.8413C45.8616 49.6936 45.815 49.5456 45.7645 49.3974C45.3782 49.0357 44.9952 48.6718 44.6161 48.3057C44.2369 47.9396 43.8613 47.5713 43.4893 47.2007C43.1173 46.8302 42.749 46.4573 42.3844 46.0823C42.0195 45.7073 41.6584 45.33 41.3011 44.9504C40.9436 44.5709 40.5899 44.1892 40.2397 43.8052C39.8893 43.4212 39.543 43.0349 39.2 42.6465C38.8569 42.2581 38.5177 41.8674 38.1821 41.4744C37.8464 41.0815 37.5143 40.6863 37.1858 40.2889C36.8576 39.8915 36.5326 39.4919 36.2115 39.09C35.8903 38.6881 35.5727 38.284 35.259 37.8776C34.945 37.4713 34.6347 37.0627 34.3281 36.6519C34.0215 36.241 33.7184 35.828 33.4189 35.4127C33.1196 34.9974 32.8239 34.5799 32.5317 34.1601C32.2395 33.7403 31.9511 33.3184 31.6662 32.8941C31.3813 32.4698 31.1 32.0434 30.8224 31.6146C30.5448 31.186 30.2708 30.7551 30.0005 30.3218C29.8891 30.5086 29.7839 30.6961 29.6847 30.8841C29.5855 31.0722 29.4923 31.2608 29.4052 31.4497C29.318 31.6387 29.2369 31.8282 29.1618 32.0183C29.0868 32.2084 29.0177 32.3991 28.9547 32.5902C28.8917 32.7812 28.8348 32.973 28.7838 33.165C28.7329 33.3572 28.688 33.5499 28.6491 33.743C28.6103 33.9364 28.5774 34.1301 28.5506 34.3243C28.5239 34.5186 28.503 34.7132 28.4884 34.9086C28.4736 35.1038 28.4649 35.2996 28.4622 35.4959C28.4596 35.6923 28.463 35.8892 28.4724 36.0865C28.4818 36.284 28.4973 36.4818 28.5188 36.6802C28.5403 36.8786 28.5678 37.0776 28.6013 37.277C28.6349 37.4765 28.6745 37.6765 28.7201 37.877C28.7657 38.0774 28.8174 38.2785 28.8751 38.48C28.9328 38.6815 28.9965 38.8836 29.0663 39.0862C29.1361 39.2887 29.2119 39.4918 29.2937 39.6954L29.4975 40.0547L29.7013 40.4141L29.9091 40.7708L30.1169 41.1275L30.3286 41.4816L30.5403 41.8357L30.7561 42.1872L30.9718 42.5386L31.1915 42.8875L31.4111 43.2364L31.6348 43.5827L31.8585 43.9289L32.0861 44.2726L32.3138 44.6162L32.5454 44.9572L32.777 45.2983L32.7677 45.3241L32.7585 45.35L32.7492 45.3758L32.7399 45.4017L32.7307 45.4275L32.7214 45.4534L32.7122 45.4792L32.7029 45.5051L32.6936 45.5309L32.6844 45.5568L32.6751 45.5826L32.6658 45.6084L32.6566 45.6343L32.6473 45.6601L32.6381 45.686L32.6288 45.7118C32.4146 45.6403 32.2017 45.5666 31.99 45.4908C31.7783 45.4149 31.5679 45.3369 31.3586 45.2567C31.1493 45.1765 30.9413 45.0942 30.7344 45.0097C30.5276 44.9252 30.322 44.8386 30.1176 44.7498C29.9132 44.661 29.71 44.57 29.508 44.4769C29.3061 44.3837 29.1053 44.2885 28.9058 44.191C28.7062 44.0936 28.5079 43.994 28.3108 43.8922C28.1137 43.7905 27.9178 43.6865 27.7231 43.5805C27.5285 43.4744 27.335 43.3662 27.1428 43.2558C26.9505 43.1454 26.7595 43.0328 26.5697 42.9181C26.3799 42.8034 26.1913 42.6865 26.0039 42.5675C25.8165 42.4485 25.6304 42.3273 25.4454 42.2039C25.2604 42.0806 25.0767 41.9551 24.8942 41.8274C24.7117 41.6998 24.5304 41.5699 24.3503 41.438C24.1702 41.306 23.9913 41.1718 23.8137 41.0356C23.636 40.8993 23.4596 40.7608 23.2844 40.6202C22.5709 40.0898 21.8829 39.5492 21.2203 38.9983C20.5578 38.4475 19.9206 37.8863 19.309 37.315C18.6974 36.7434 18.1113 36.162 17.5505 35.57C16.9899 34.9783 16.4546 34.3762 15.9448 33.7637C15.435 33.1513 14.9507 32.5288 14.4919 31.8959C14.033 31.2631 13.5996 30.6199 13.1917 29.9665C12.7838 29.3132 12.4013 28.6496 12.0444 27.9759C11.6873 27.3019 11.3558 26.6178 11.0498 25.9236C10.7437 25.2292 10.4631 24.5247 10.208 23.8098C9.95284 23.095 9.72312 22.3698 9.51892 21.6345C9.31473 20.8992 9.13597 20.1535 8.98271 19.3978C8.82945 18.6421 8.70163 17.876 8.59927 17.0996C8.49688 16.3232 8.42002 15.5367 8.36859 14.7398C8.31716 13.943 8.29124 13.136 8.29075 12.3187C8.29026 11.5014 8.3152 10.6738 8.36567 9.83609C8.41614 8.99836 8.49202 8.1503 8.59337 7.29189C8.56185 7.26862 8.53028 7.24688 8.49865 7.22665C8.46702 7.20643 8.4353 7.18749 8.40351 7.17009C8.37174 7.15267 8.33989 7.13679 8.30794 7.1222C8.276 7.1076 8.244 7.09453 8.21195 7.08298C8.17986 7.07119 8.14769 7.06094 8.1155 7.0522C8.08328 7.04347 8.05103 7.03626 8.01866 7.03034C7.98629 7.02442 7.95387 7.02003 7.92135 7.01691C7.88888 7.01404 7.85631 7.01246 7.82369 7.0124C7.79098 7.01211 7.7583 7.01357 7.72551 7.01633C7.69274 7.01907 7.65983 7.02312 7.62693 7.02893C7.594 7.03449 7.561 7.04158 7.52793 7.0502C7.49482 7.05858 7.46172 7.06873 7.42853 7.08015C7.39531 7.09158 7.36198 7.1043 7.32861 7.11854C7.29531 7.13302 7.26187 7.14879 7.22834 7.16584C7.19489 7.18313 7.1613 7.20171 7.12766 7.22182C7.09396 7.24169 7.06028 7.26331 7.02649 7.28623C6.89076 7.47009 6.75978 7.65559 6.63344 7.84225C6.50711 8.02892 6.38545 8.217 6.26857 8.40672C6.1516 8.5962 6.03934 8.78709 5.93176 8.97938C5.82419 9.17168 5.72132 9.36537 5.62314 9.56047C5.52489 9.75534 5.43141 9.95185 5.3426 10.1498C5.2538 10.3477 5.16963 10.5468 5.09023 10.7475C5.01083 10.9482 4.93606 11.1501 4.86602 11.3537C4.79595 11.557 4.73061 11.7619 4.66993 11.968C4.60929 12.1744 4.5533 12.3819 4.50199 12.5908C4.45074 12.8 4.40414 13.0103 4.36222 13.222C4.32031 13.4338 4.28307 13.6469 4.25055 13.8615C4.21802 14.076 4.19021 14.2919 4.16705 14.5093C4.14392 14.7267 4.1255 14.9454 4.11173 15.1656C4.098 15.3858 4.08895 15.6073 4.08454 15.8301C4.08019 16.053 4.08053 16.2774 4.08551 16.503C4.09055 16.7288 4.10022 16.9557 4.11465 17.1843C4.13412 17.6975 4.16212 18.2081 4.19871 18.7164C4.23524 19.2245 4.2803 19.7301 4.33389 20.2331C4.38748 20.7361 4.44967 21.2368 4.52032 21.7348C4.59097 22.2327 4.67016 22.7281 4.75787 23.221C4.84558 23.7139 4.94183 24.2043 5.0466 24.6921C5.15138 25.1799 5.26468 25.6652 5.38652 26.1479C5.50835 26.6307 5.63872 27.1109 5.77762 27.5886C5.91652 28.0663 6.06388 28.5412 6.21984 29.0138C6.3758 29.4864 6.54029 29.9565 6.71331 30.4241C6.88627 30.8914 7.06782 31.3564 7.25791 31.8189C7.44799 32.2814 7.64654 32.7411 7.85369 33.1985C8.06084 33.6559 8.27645 34.1106 8.50066 34.5629C8.72487 35.0153 8.95754 35.4649 9.19881 35.9122C9.44002 36.3592 9.68982 36.804 9.94809 37.2459C10.2064 37.6882 10.4732 38.1276 10.7486 38.5648C11.024 39.0017 11.3079 39.4363 11.6003 39.8681C11.7376 40.038 11.8763 40.2063 12.0163 40.3732C12.1564 40.5402 12.2978 40.7055 12.4407 40.8694C12.5835 41.0332 12.7277 41.1956 12.8732 41.3565C13.0188 41.5174 13.1658 41.6769 13.3141 41.8348C13.4624 41.9927 13.6121 42.1491 13.7632 42.3041C13.9143 42.459 14.0668 42.6125 14.2206 42.7644C14.3744 42.9164 14.5297 43.0669 14.6863 43.2158C14.8429 43.3648 15.0008 43.5123 15.1602 43.6583C15.3196 43.8043 15.4803 43.9488 15.6424 44.0918C15.8045 44.2349 15.968 44.3764 16.1329 44.5164C16.2977 44.6564 16.464 44.795 16.6316 44.9321C16.7993 45.0691 16.9683 45.2047 17.1386 45.3388C17.309 45.4728 17.4808 45.6054 17.6539 45.7365C17.8271 45.8676 18.0016 45.9972 18.1775 46.1254C18.3534 46.2535 18.5307 46.3801 18.7094 46.5052C18.888 46.6304 19.0681 46.754 19.2495 46.8762L19.9432 47.2546L20.6369 47.6331L21.3306 48.0116L22.0243 48.39L22.7196 48.7631L23.4149 49.1362L24.1102 49.5092L24.8055 49.8823L25.5023 50.25L26.1992 50.6177L26.8961 50.9854L27.5929 51.3531L28.2914 51.7155L28.9898 52.0778L29.6883 52.4401L30.3867 52.8025L30.1987 52.8844L30.0106 52.9663L29.8212 53.0447L29.6317 53.1231L29.4408 53.198L29.2499 53.2728L29.0576 53.3442L28.8653 53.4155L28.6716 53.4833L28.4778 53.5511L28.2827 53.6153L28.0875 53.6795L27.8909 53.7402L27.6944 53.8009L27.4964 53.8581L27.2984 53.9153C27.2406 53.9526 27.1845 53.991 27.1299 54.0302C27.0754 54.0694 27.0225 54.1096 26.9712 54.1507C26.9199 54.1918 26.8702 54.2338 26.8221 54.2768C26.774 54.3198 26.7275 54.3636 26.6827 54.4085C26.6378 54.4533 26.5946 54.499 26.5529 54.5457C26.5113 54.5924 26.4713 54.64 26.4329 54.6885C26.3945 54.7371 26.3577 54.7866 26.3225 54.837C26.2873 54.8874 26.2538 54.9387 26.2218 54.991C26.1899 55.0432 26.1595 55.0964 26.1308 55.1505C26.1021 55.2046 26.0749 55.2597 26.0494 55.3157C26.0239 55.3717 26 55.4286 25.9778 55.4864C25.9555 55.5443 25.9348 55.603 25.9157 55.6627C25.8967 55.7224 25.8793 55.7831 25.8634 55.8446C25.8476 55.9062 25.8334 55.9687 25.8208 56.0321C25.8082 56.0955 25.7972 56.1599 25.7878 56.2252C25.7784 56.2905 25.7707 56.3567 25.7645 56.4238C25.7513 56.4921 25.7389 56.5603 25.7273 56.6285C25.7157 56.6968 25.705 56.765 25.6949 56.8333C25.685 56.9016 25.6758 56.9699 25.6674 57.0382C25.659 57.1064 25.6514 57.1748 25.6446 57.2431C25.6378 57.3114 25.6318 57.3797 25.6266 57.448C25.6214 57.5164 25.617 57.5847 25.6134 57.6531C25.6098 57.7215 25.607 57.7898 25.6051 57.8582C25.6031 57.9266 25.6019 57.995 25.6015 58.0634C25.6011 58.1318 25.6015 58.2002 25.6027 58.2686C25.6039 58.337 25.6059 58.4055 25.6087 58.4739C25.6116 58.5423 25.6152 58.6108 25.6196 58.6793C25.624 58.7477 25.6292 58.8162 25.6352 58.8847C25.6412 58.9532 25.6481 59.0217 25.6557 59.0902C25.6633 59.1587 25.6717 59.2272 25.6809 59.2957C25.6901 59.3642 25.7002 59.4328 25.711 59.5013C25.7218 59.5699 25.7334 59.6384 25.7459 59.707L26.7419 59.5484L27.738 59.3898L28.7343 59.2447L29.7306 59.0997L30.7272 58.9683L31.7238 58.8369L32.7207 58.719L33.7175 58.6012L34.7147 58.497L35.7118 58.3928L36.7092 58.3022L37.7066 58.2116L38.7043 58.1345L39.702 58.0575L40.6999 57.9942C40.6999 57.9942 40.7343 58.0127 41.2476 57.839Z" fill="url(#paint0_linear_36_4305)"/>
<defs>
<linearGradient id="paint0_linear_36_4305" x1="31.6786" y1="60.1466" x2="18.4337" y2="4.45618" gradientUnits="userSpaceOnUse">
<stop stop-color="#FFD700"/>
<stop offset="0.788462" stop-color="white"/>
</linearGradient>
</defs>
</svg>
