<?xml version="1.0" encoding="UTF-8"?>
<svg id="Text" xmlns="http://www.w3.org/2000/svg" viewBox="0 0 496.3 138.56">
  <defs>
    <style>
      .cls-1 {
        fill: #111154;
      }

      .cls-2, .cls-3 {
        fill: #fff;
      }

      .cls-4, .cls-3 {
        stroke-width: 4px;
      }

      .cls-4, .cls-3, .cls-5 {
        stroke-miterlimit: 10;
      }

      .cls-4, .cls-5 {
        fill: gold;
        stroke: gold;
      }

      .cls-3 {
        stroke: #fff;
      }
    </style>
  </defs>
  <rect class="cls-1" y=".02" width="496.3" height="138.54"/>
  <g>
    <path class="cls-5" d="m39.42,113.8c-1.28,0-2.45-.24-3.49-.71-1.04-.47-1.87-1.17-2.48-2.08-.61-.92-.92-2.03-.92-3.35,0-1.14.23-2.2.7-3.18.47-.98,1.13-1.76,1.99-2.36.86-.59,1.87-.89,3.04-.89s2.15.26,2.97.77c.83.51,1.46,1.21,1.9,2.08.44.88.66,1.86.66,2.95,0,.18,0,.35-.01.53s-.03.35-.06.53h-9.99c.03,1.01.3,1.87.82,2.58s1.19,1.24,2.02,1.59c.83.35,1.73.53,2.7.53h3.01v1.01h-2.86Zm-5.68-6.6h8.88c.02-.32,0-.7-.06-1.13s-.17-.87-.35-1.31-.43-.85-.76-1.24c-.33-.38-.76-.7-1.29-.94-.53-.24-1.18-.36-1.95-.36-.69,0-1.31.14-1.87.43s-1.02.68-1.41,1.17c-.39.49-.68,1.03-.89,1.61-.21.59-.31,1.18-.31,1.77Z"/>
    <path class="cls-2" d="m60.13,114.11c-1.25,0-2.33-.29-3.23-.85s-1.58-1.34-2.06-2.32c-.47-.98-.71-2.08-.71-3.3s.25-2.29.76-3.26c.51-.97,1.23-1.74,2.18-2.3.95-.56,2.08-.84,3.39-.84,1.24,0,2.31.28,3.23.83s1.62,1.3,2.13,2.24c.51.94.76,2,.76,3.19v6.31h-1.13v-2.96h-.07c-.23.5-.57,1-1.05,1.5-.47.5-1.06.93-1.76,1.26-.7.34-1.51.5-2.44.5Zm.19-.99c.98,0,1.85-.24,2.62-.71.77-.47,1.38-1.13,1.82-1.97.44-.84.66-1.79.66-2.85s-.2-1.95-.61-2.76c-.41-.81-.99-1.45-1.75-1.91-.75-.46-1.64-.7-2.65-.7s-1.97.24-2.73.72c-.76.48-1.35,1.14-1.76,1.97s-.61,1.78-.61,2.84c0,.98.19,1.88.58,2.7s.95,1.47,1.71,1.95c.75.48,1.66.72,2.72.72Z"/>
    <path class="cls-2" d="m77.79,113.8v-1.01h5.73c.59,0,1.09-.12,1.49-.37.4-.25.71-.57.91-.98.21-.4.31-.82.31-1.25,0-.39-.09-.75-.26-1.11-.18-.35-.45-.64-.81-.87-.36-.22-.82-.34-1.38-.34h-2.65c-.79,0-1.45-.14-2-.41-.55-.27-.96-.65-1.23-1.12-.27-.47-.41-1-.41-1.58s.13-1.09.4-1.59c.26-.5.65-.9,1.17-1.2.51-.3,1.12-.46,1.83-.46h5.51v1.01h-5.39c-.75,0-1.33.22-1.73.67-.4.45-.6.96-.6,1.52s.2,1.03.61,1.46,1.04.64,1.89.64h2.43c.87,0,1.58.15,2.14.45s.98.69,1.26,1.19c.28.5.42,1.06.42,1.68s-.15,1.19-.46,1.75c-.3.55-.73,1.01-1.26,1.37-.54.36-1.18.54-1.94.54h-5.99Z"/>
    <path class="cls-2" d="m103.26,118.68v-4.62c-.87-.06-1.67-.32-2.42-.76s-1.35-1.05-1.81-1.83c-.46-.78-.69-1.7-.69-2.78v-7.17h1.16v7.1c0,.96.21,1.78.63,2.46.42.67.95,1.18,1.61,1.52.66.34,1.35.5,2.07.5s1.46-.17,2.13-.52c.67-.34,1.21-.85,1.64-1.52.43-.67.64-1.48.64-2.44v-7.1h1.11v7.17c0,1.09-.22,2.03-.67,2.8-.45.78-1.05,1.38-1.81,1.81-.75.42-1.56.68-2.43.76v4.62h-1.16Z"/>
    <path class="cls-2" d="m119.94,107.92v-1.06h6.81v1.06h-6.81Z"/>
    <path class="cls-5" d="m143.63,113.8c-1.28,0-2.45-.24-3.49-.71-1.04-.47-1.87-1.17-2.48-2.08-.61-.92-.92-2.03-.92-3.35,0-1.14.23-2.2.7-3.18.47-.98,1.13-1.76,1.99-2.36.86-.59,1.87-.89,3.04-.89s2.15.26,2.97.77c.83.51,1.46,1.21,1.9,2.08.44.88.66,1.86.66,2.95,0,.18,0,.35-.01.53s-.03.35-.06.53h-9.99c.03,1.01.3,1.87.82,2.58s1.19,1.24,2.02,1.59c.83.35,1.73.53,2.7.53h3.01v1.01h-2.86Zm-5.68-6.6h8.88c.02-.32,0-.7-.06-1.13s-.17-.87-.35-1.31-.43-.85-.76-1.24c-.33-.38-.76-.7-1.29-.94-.53-.24-1.18-.36-1.95-.36-.69,0-1.31.14-1.87.43s-1.02.68-1.41,1.17c-.39.49-.68,1.03-.89,1.61-.21.59-.31,1.18-.31,1.77Z"/>
    <path class="cls-2" d="m159.61,113.8v-11.26h-2.17v-1.01h2.17v-1.83c0-1.09.31-1.95.93-2.56.62-.62,1.47-.93,2.56-.93h2.55v1.01h-2.31c-.87,0-1.52.23-1.95.7-.43.47-.65,1.13-.65,2v1.61h6.84v-1.83c0-1.09.31-1.95.93-2.56.62-.62,1.47-.93,2.56-.93h2.43v1.01h-2.17c-.87,0-1.52.23-1.95.7-.43.47-.65,1.13-.65,2v1.61h7.97v12.28h-1.13v-11.26h-6.84v11.26h-1.16v-11.26h-6.84v11.26h-1.13Zm16.54-14.73c-.24,0-.45-.09-.64-.28s-.28-.4-.28-.64.09-.45.28-.64c.18-.18.4-.28.64-.28.26,0,.47.09.65.28.18.19.26.4.26.64s-.09.45-.26.64c-.18.18-.39.28-.65.28Z"/>
    <path class="cls-2" d="m194.29,113.8c-1.27,0-2.4-.27-3.39-.82-1-.54-1.78-1.28-2.36-2.2s-.87-1.96-.87-3.12.29-2.19.87-3.12,1.36-1.66,2.36-2.2c.99-.54,2.13-.82,3.39-.82h1.35v1.01h-1.49c-.96,0-1.85.23-2.65.69s-1.45,1.07-1.94,1.84c-.49.77-.73,1.64-.73,2.6s.24,1.83.73,2.6c.49.77,1.14,1.38,1.94,1.84.8.46,1.69.69,2.65.69h1.49v1.01h-1.35Z"/>
    <path class="cls-2" d="m206.71,99.07c-.24,0-.45-.09-.64-.28-.18-.18-.28-.4-.28-.64,0-.26.09-.47.28-.65.18-.18.4-.26.64-.26s.45.09.64.26c.18.18.28.39.28.65,0,.24-.09.45-.28.64-.18.18-.4.28-.64.28Zm-.6,14.73v-12.28h1.16v12.28h-1.16Z"/>
    <path class="cls-2" d="m225.1,113.8c-1.28,0-2.45-.24-3.49-.71-1.04-.47-1.87-1.17-2.48-2.08-.61-.92-.92-2.03-.92-3.35,0-1.14.23-2.2.7-3.18.47-.98,1.13-1.76,1.99-2.36.86-.59,1.87-.89,3.04-.89s2.15.26,2.97.77c.83.51,1.46,1.21,1.9,2.08.44.88.66,1.86.66,2.95,0,.18,0,.35-.01.53s-.03.35-.06.53h-9.99c.03,1.01.3,1.87.82,2.58s1.19,1.24,2.02,1.59c.83.35,1.73.53,2.7.53h3.01v1.01h-2.86Zm-5.68-6.6h8.88c.02-.32,0-.7-.06-1.13s-.17-.87-.35-1.31-.43-.85-.76-1.24c-.33-.38-.76-.7-1.29-.94-.53-.24-1.18-.36-1.95-.36-.69,0-1.31.14-1.87.43s-1.02.68-1.41,1.17c-.39.49-.68,1.03-.89,1.61-.21.59-.31,1.18-.31,1.77Z"/>
    <path class="cls-2" d="m240.44,113.8v-7.17c0-1.16.26-2.13.77-2.94s1.19-1.42,2.02-1.84c.83-.42,1.73-.64,2.67-.64s1.88.21,2.71.64c.83.43,1.5,1.04,2.01,1.84s.77,1.78.77,2.94v7.17h-1.15v-7.1c0-.96-.21-1.78-.61-2.44-.41-.67-.95-1.17-1.61-1.52-.67-.34-1.37-.52-2.11-.52s-1.44.17-2.09.51c-.66.34-1.2.84-1.61,1.5-.42.67-.63,1.49-.63,2.47v7.1h-1.13Z"/>
    <path class="cls-2" d="m261.48,102.53v-1.01h8.23v1.01h-8.23Zm5.63,11.26c-1.09,0-1.95-.31-2.56-.94-.62-.63-.93-1.48-.93-2.55v-11.87h1.16v11.65c0,.87.22,1.53.65,2,.43.47,1.08.7,1.95.7h2.26v1.01h-2.53Z"/>
    <path class="cls-2" d="m279.24,107.92v-1.06h6.81v1.06h-6.81Z"/>
    <path class="cls-5" d="m302.92,113.8c-1.28,0-2.45-.24-3.49-.71s-1.87-1.17-2.48-2.08c-.61-.92-.91-2.03-.91-3.35,0-1.14.23-2.2.7-3.18.47-.98,1.13-1.76,1.99-2.36s1.87-.89,3.04-.89,2.15.26,2.97.77c.83.51,1.46,1.21,1.9,2.08.44.88.66,1.86.66,2.95,0,.18,0,.35-.01.53,0,.18-.03.35-.06.53h-9.99c.03,1.01.3,1.87.82,2.58s1.19,1.24,2.02,1.59c.83.35,1.73.53,2.7.53h3.01v1.01h-2.86Zm-5.68-6.6h8.88c.02-.32,0-.7-.06-1.13-.06-.43-.17-.87-.35-1.31s-.43-.85-.76-1.24c-.33-.38-.76-.7-1.29-.94-.53-.24-1.18-.36-1.95-.36-.69,0-1.31.14-1.87.43s-1.02.68-1.41,1.17c-.38.49-.68,1.03-.89,1.61-.21.59-.31,1.18-.31,1.77Z"/>
    <path class="cls-2" d="m317.87,113.8v-1.01h5.73c.59,0,1.09-.12,1.49-.37.4-.25.71-.57.91-.98.21-.4.31-.82.31-1.25,0-.39-.09-.75-.26-1.11-.18-.35-.45-.64-.81-.87s-.82-.34-1.38-.34h-2.65c-.79,0-1.45-.14-2-.41-.54-.27-.95-.65-1.23-1.12-.27-.47-.41-1-.41-1.58s.13-1.09.4-1.59c.26-.5.65-.9,1.17-1.2s1.12-.46,1.83-.46h5.51v1.01h-5.39c-.75,0-1.33.22-1.73.67s-.6.96-.6,1.52.21,1.03.61,1.46,1.04.64,1.89.64h2.43c.87,0,1.58.15,2.14.45.56.3.98.69,1.26,1.19.28.5.42,1.06.42,1.68s-.15,1.19-.46,1.75c-.31.55-.73,1.01-1.26,1.37-.54.36-1.18.54-1.94.54h-5.99Z"/>
    <path class="cls-2" d="m338.04,113.8v-1.01h5.73c.59,0,1.09-.12,1.49-.37.4-.25.71-.57.91-.98.21-.4.31-.82.31-1.25,0-.39-.09-.75-.26-1.11-.18-.35-.45-.64-.81-.87s-.82-.34-1.38-.34h-2.65c-.79,0-1.45-.14-2-.41-.54-.27-.95-.65-1.23-1.12-.27-.47-.41-1-.41-1.58s.13-1.09.4-1.59c.26-.5.65-.9,1.17-1.2s1.12-.46,1.83-.46h5.51v1.01h-5.39c-.75,0-1.33.22-1.73.67s-.6.96-.6,1.52.21,1.03.61,1.46,1.04.64,1.89.64h2.43c.87,0,1.58.15,2.14.45.56.3.98.69,1.26,1.19.28.5.42,1.06.42,1.68s-.15,1.19-.46,1.75c-.31.55-.73,1.01-1.26,1.37-.54.36-1.18.54-1.94.54h-5.99Z"/>
    <path class="cls-2" d="m364.86,113.8c-1.28,0-2.45-.24-3.49-.71s-1.87-1.17-2.48-2.08c-.61-.92-.91-2.03-.91-3.35,0-1.14.23-2.2.7-3.18.47-.98,1.13-1.76,1.99-2.36s1.87-.89,3.04-.89,2.15.26,2.97.77c.83.51,1.46,1.21,1.9,2.08.44.88.66,1.86.66,2.95,0,.18,0,.35-.01.53,0,.18-.03.35-.06.53h-9.99c.03,1.01.3,1.87.82,2.58s1.19,1.24,2.02,1.59c.83.35,1.73.53,2.7.53h3.01v1.01h-2.86Zm-5.68-6.6h8.88c.02-.32,0-.7-.06-1.13-.06-.43-.17-.87-.35-1.31s-.43-.85-.76-1.24c-.33-.38-.76-.7-1.29-.94-.53-.24-1.18-.36-1.95-.36-.69,0-1.31.14-1.87.43s-1.02.68-1.41,1.17c-.38.49-.68,1.03-.89,1.61-.21.59-.31,1.18-.31,1.77Z"/>
    <path class="cls-2" d="m380.19,113.8v-7.17c0-1.16.26-2.13.77-2.94s1.19-1.42,2.02-1.84c.83-.42,1.72-.64,2.67-.64s1.88.21,2.71.64c.83.43,1.5,1.04,2.01,1.84.51.8.77,1.78.77,2.94v7.17h-1.16v-7.1c0-.96-.2-1.78-.61-2.44s-.95-1.17-1.61-1.52c-.67-.34-1.37-.52-2.11-.52s-1.44.17-2.09.51-1.2.84-1.61,1.5c-.42.67-.63,1.49-.63,2.47v7.1h-1.13Z"/>
    <path class="cls-2" d="m401.23,102.53v-1.01h8.23v1.01h-8.23Zm5.63,11.26c-1.09,0-1.95-.31-2.56-.94-.62-.63-.93-1.48-.93-2.55v-11.87h1.16v11.65c0,.87.22,1.53.65,2,.43.47,1.08.7,1.95.7h2.26v1.01h-2.53Z"/>
    <path class="cls-2" d="m420.58,99.07c-.24,0-.45-.09-.64-.28-.19-.18-.28-.4-.28-.64,0-.26.09-.47.28-.65.18-.18.4-.26.64-.26s.45.09.64.26c.18.18.28.39.28.65,0,.24-.09.45-.28.64s-.4.28-.64.28Zm-.6,14.73v-12.28h1.16v12.28h-1.16Z"/>
    <path class="cls-2" d="m438.97,113.8c-1.28,0-2.45-.24-3.49-.71s-1.87-1.17-2.48-2.08c-.61-.92-.91-2.03-.91-3.35,0-1.14.23-2.2.7-3.18.47-.98,1.13-1.76,1.99-2.36s1.87-.89,3.04-.89,2.15.26,2.97.77c.83.51,1.46,1.21,1.9,2.08.44.88.66,1.86.66,2.95,0,.18,0,.35-.01.53,0,.18-.03.35-.06.53h-9.99c.03,1.01.3,1.87.82,2.58s1.19,1.24,2.02,1.59c.83.35,1.73.53,2.7.53h3.01v1.01h-2.86Zm-5.68-6.6h8.88c.02-.32,0-.7-.06-1.13-.06-.43-.17-.87-.35-1.31s-.43-.85-.76-1.24c-.33-.38-.76-.7-1.29-.94-.53-.24-1.18-.36-1.95-.36-.69,0-1.31.14-1.87.43s-1.02.68-1.41,1.17c-.38.49-.68,1.03-.89,1.61-.21.59-.31,1.18-.31,1.77Z"/>
    <path class="cls-2" d="m454.3,113.8v-17.57h1.13v17.57h-1.13Z"/>
  </g>
  <g>
    <g>
      <path class="cls-2" d="m210.55,50.3h-34.81v-6.33h34.81v6.33Z"/>
      <path class="cls-2" d="m265.79,31.32h-39.55v37.97h-6.33V24.99h45.88v6.33Zm-5.44,18.98h-30.94v-6.33h30.94v6.33Z"/>
      <path class="cls-2" d="m308.06,69.29h-31.64c-2.02,0-3.88-.5-5.57-1.49-1.69-.99-3.03-2.32-4.02-3.99-.99-1.67-1.49-3.53-1.49-5.6s.5-3.93,1.49-5.6c.99-1.67,2.33-3,4.02-3.99,1.69-.99,3.54-1.49,5.57-1.49h22.15v6.33h-22.15c-1.31,0-2.43.46-3.35,1.39-.93.93-1.39,2.05-1.39,3.35s.46,2.43,1.39,3.35c.93.93,2.05,1.39,3.35,1.39h25.31v-17.4c0-1.31-.46-2.43-1.39-3.35-.93-.93-2.05-1.39-3.35-1.39h-25.31v-6.33h25.31c2.07,0,3.93.5,5.6,1.49,1.67.99,3,2.32,3.99,3.99.99,1.67,1.49,3.53,1.49,5.6v23.73Z"/>
      <path class="cls-2" d="m352.68,69.29h-20.69c-2.4,0-4.65-.45-6.74-1.36-2.09-.91-3.92-2.16-5.5-3.77-1.58-1.6-2.82-3.45-3.7-5.54-.89-2.09-1.33-4.33-1.33-6.74s.44-4.65,1.33-6.74c.89-2.09,2.12-3.93,3.7-5.54s3.42-2.86,5.5-3.77c2.09-.91,4.33-1.36,6.74-1.36h20.69v6.33h-20.69c-2.02,0-3.86.51-5.5,1.52s-2.96,2.35-3.96,4.02c-.99,1.67-1.49,3.51-1.49,5.54s.5,3.87,1.49,5.54c.99,1.67,2.31,3.01,3.96,4.02s3.48,1.52,5.5,1.52h20.69v6.33Z"/>
      <path class="cls-2" d="m367.55,26.57c0,1.31-.46,2.43-1.39,3.35-.93.93-2.05,1.39-3.35,1.39s-2.43-.46-3.35-1.39c-.93-.93-1.39-2.05-1.39-3.35s.46-2.43,1.39-3.35c.93-.93,2.05-1.39,3.35-1.39s2.42.46,3.35,1.39c.93.93,1.39,2.05,1.39,3.35Zm-1.58,42.72h-6.33v-34.8h6.33v34.8Z"/>
      <path class="cls-2" d="m387.48,69.29h-1.58c-2.03,0-3.88-.5-5.57-1.49-1.69-.99-3.03-2.32-4.02-3.99-.99-1.67-1.49-3.53-1.49-5.6V21.83h6.33v36.39c0,1.31.46,2.43,1.39,3.35.93.93,2.05,1.39,3.35,1.39h1.58v6.33Z"/>
      <path class="cls-2" d="m400.9,26.57c0,1.31-.46,2.43-1.39,3.35-.93.93-2.05,1.39-3.35,1.39s-2.43-.46-3.35-1.39c-.93-.93-1.39-2.05-1.39-3.35s.46-2.43,1.39-3.35c.93-.93,2.05-1.39,3.35-1.39s2.42.46,3.35,1.39c.93.93,1.39,2.05,1.39,3.35Zm-1.58,42.72h-6.33v-34.8h6.33v34.8Z"/>
      <path class="cls-2" d="m420.64,69.29h-6.33v-28.48h-9.49v-6.33h9.49v-12.66h6.33v12.66h22.15v6.33h-22.15v28.48Z"/>
      <path class="cls-2" d="m488.23,70.87c0,2.03-.5,3.88-1.49,5.57s-2.32,3.03-3.99,4.02c-1.67.99-3.53,1.49-5.6,1.49h-25.31v-6.33h25.31c1.31,0,2.43-.46,3.35-1.39.93-.93,1.39-2.05,1.39-3.35v-1.58h-17.4c-2.4,0-4.65-.45-6.74-1.36-2.09-.91-3.92-2.16-5.51-3.77-1.58-1.6-2.82-3.45-3.7-5.54-.89-2.09-1.33-4.33-1.33-6.74v-17.4h6.33v17.4c0,2.02.5,3.87,1.49,5.54.99,1.67,2.31,3,3.96,3.99,1.65.99,3.48,1.51,5.51,1.55h17.4v-28.48h6.33v36.39Z"/>
    </g>
    <g>
      <path class="cls-3" d="m8.18,66.46v-3.19h19.1c1.98,0,3.64-.39,4.98-1.17,1.34-.78,2.35-1.81,3.05-3.07.69-1.26,1.04-2.58,1.04-3.94,0-1.21-.29-2.38-.88-3.49-.59-1.11-1.48-2.02-2.69-2.73-1.2-.71-2.74-1.06-4.61-1.06h-8.83c-2.62,0-4.84-.43-6.66-1.29-1.82-.86-3.18-2.04-4.09-3.53-.91-1.49-1.36-3.15-1.36-4.97s.44-3.44,1.32-5.01c.88-1.57,2.18-2.83,3.89-3.79,1.71-.96,3.74-1.44,6.1-1.44h18.38v3.19h-17.98c-2.52,0-4.44.71-5.78,2.12-1.34,1.42-2.01,3.01-2.01,4.78s.68,3.25,2.05,4.59c1.36,1.34,3.46,2.01,6.3,2.01h8.11c2.89,0,5.27.47,7.14,1.4,1.87.94,3.28,2.19,4.21,3.75.94,1.57,1.4,3.34,1.4,5.31s-.51,3.75-1.52,5.5c-1.02,1.74-2.42,3.19-4.21,4.32-1.79,1.14-3.95,1.71-6.46,1.71H8.18Z"/>
      <path class="cls-3" d="m51.04,66.46v-23.51c0-2.98.68-5.69,2.05-8.12,1.36-2.43,3.3-4.36,5.82-5.8,2.51-1.44,5.54-2.16,9.07-2.16,1.82,0,3.76.28,5.82.83,2.06.56,3.97,1.55,5.74,3,1.77,1.44,3.08,3.53,3.93,6.26h.08c.96-2.73,2.34-4.82,4.13-6.26,1.79-1.44,3.72-2.44,5.78-3,2.06-.56,4-.83,5.82-.83,3.48,0,6.49.72,9.03,2.16,2.54,1.44,4.48,3.37,5.82,5.8,1.34,2.43,2.01,5.13,2.01,8.12v23.51h-3.77v-23.51c0-2.53-.58-4.75-1.73-6.67-1.15-1.92-2.72-3.45-4.7-4.59-1.98-1.14-4.23-1.71-6.74-1.71s-4.9.58-6.98,1.74c-2.09,1.16-3.73,2.72-4.94,4.66-1.2,1.95-1.81,4.13-1.81,6.56v23.51h-3.85v-23.51c0-2.43-.6-4.61-1.81-6.56-1.2-1.95-2.84-3.5-4.9-4.66-2.06-1.16-4.4-1.74-7.02-1.74-2.46,0-4.69.57-6.7,1.71-2.01,1.14-3.57,2.67-4.69,4.59-1.12,1.92-1.69,4.15-1.69,6.67v23.51h-3.77Z"/>
      <path class="cls-4" d="m150,66.46c-4.28,0-8.16-.75-11.64-2.24-3.48-1.49-6.23-3.68-8.27-6.56-2.03-2.88-3.05-6.4-3.05-10.54,0-3.59.78-6.93,2.33-10.01,1.55-3.08,3.76-5.56,6.62-7.43,2.86-1.87,6.25-2.81,10.15-2.81s7.16.81,9.91,2.43c2.76,1.62,4.87,3.81,6.34,6.56,1.47,2.76,2.21,5.85,2.21,9.29,0,.56-.01,1.11-.04,1.67-.03.56-.09,1.11-.2,1.67h-33.31c.11,3.19,1.02,5.89,2.73,8.11,1.71,2.23,3.96,3.89,6.74,5.01,2.78,1.11,5.78,1.67,8.99,1.67h10.03v3.19h-9.55Zm-18.94-20.78h29.62c.05-1.01-.01-2.2-.2-3.56-.19-1.37-.58-2.74-1.16-4.13-.59-1.39-1.43-2.69-2.53-3.91-1.1-1.21-2.53-2.2-4.29-2.96-1.77-.76-3.93-1.14-6.5-1.14-2.3,0-4.37.46-6.22,1.37-1.85.91-3.41,2.14-4.7,3.68-1.28,1.54-2.27,3.24-2.97,5.08-.7,1.85-1.04,3.7-1.04,5.57Z"/>
    </g>
  </g>
</svg>